<svg xmlns="http://www.w3.org/2000/svg" width="542" height="542"><path fill="#fa742c" d="M271 0h3a222 222 0 0 1 46 4 271 271 0 0 1 187 132l1 3q21 38 30 80v3q5 24 4 49v3q1 22-3 43l-1 3q-12 67-55 121l-2 3a232 232 0 0 1-49 46l-26 17-3 1q-38 21-80 30h-3q-24 5-49 4h-3q-21 1-43-3l-3-1q-67-12-121-55l-3-2a232 232 0 0 1-46-49l-17-26-1-3q-21-38-30-80v-3q-5-24-4-49v-3q-1-21 3-43l1-3q13-67 55-121l2-3a232 232 0 0 1 49-46l26-17 3-1q38-21 80-30h3q24-5 49-4"/><path fill="#271e1a" d="M290 61v2h3q9 2 17 6l6 2 8 4v2l2 1c21 8 34 29 43 48q5 13 9 28l1 2q3 15 2 30v3l-1 18h4q3-1 6 2 10 10 8 23v3q0 14-4 27l-1 4c-7 22-7 22-15 27q-6 2-13 1l-4-2-1 9q-4 18-15 31-4 6-3 13v15c-1 6-1 6 2 11l3 2 4 5 1 3 8 15 2 6q3 5 8 7 6 2 10 6l1 1 10 7 2 1 11 9q10 7 22 7l10 2v2h2l26 7 2 1 4 4-32 30-6 4-26 17-3 1q-38 21-80 30h-3q-24 5-49 4h-3q-21 1-43-3l-3-1q-67-12-121-55l-3-2-21-20-2-2c-12-11-12-11-16-18v-2l3-1 2-4q7-9 19-11h2l5-2q6-4 12-5l2-1 22-7 3-1q9-4 18-4 6 0 11-4l3-6 2-3 1-4 8-17c5-9 8-16 18-21l7-1q0-8-5-15l-3-4-1-1-9-21-1-2-2-11h-2q-5 2-11-3-10-13-12-31l-2-6c-2-13-5-27 3-39q3-4 9-4h3l-1-26c0-8 0-8-4-14l-2-2q-4-5-3-11 2-17 14-30l4-8a66 66 0 0 1 37-42l4-2q15-7 32-12l4-1q20-5 41-1"/><path fill="#2c243b" d="m177 294 4 6 1 2 2 6q10 30 34 47l2 2 6 4 3 2a65 65 0 0 0 30 13l1 2c-23 1-37-12-53-27l-2-2-3-3v-2h-2v32l-1 15q1 6 4 10l1 2 14 20 2 3 26 28 6 6 22 18 11 9 2 1 2 6 7-8 9-11 2-2 10-10c13-12 17-21 20-38l3-12q2-6-1-11l-1-15v-31l1-15 2-1v25q1 5 6 8l4 5 1 3 8 15 2 6q3 5 8 7 6 2 10 6l1 1 10 7 2 1 11 9q10 7 22 7l10 2v2h2l23 6 3 1 2 1 4 4-32 30-6 4-26 17-3 1q-38 21-80 30h-3q-24 5-49 4h-3q-21 1-43-3l-3-1q-67-12-121-55l-3-2-21-20-2-2c-12-11-12-11-16-18v-2l3-1 2-4q7-9 19-11h2l5-2q6-4 12-5l2-1 22-7 3-1q9-4 18-4 6 0 11-4l3-6 2-3 1-4 8-17c5-9 8-16 18-21l7-1q0-8-5-15l-4-5q-11-15-11-33"/><path fill="#eca36e" d="M310 124q17 11 31 26l2 2q7 8 6 19 0 7 5 13 5 8 6 18v35q1 22-6 41v2a95 95 0 0 1-20 33q-4 7-11 9l-7-10-1 3-13 22-1 2q-4 7-11 7-7 1-13-2-11-5-22-1l-4 1q-8 3-17 0-15-10-20-28v-2l-6 7q-9-1-13-8l-9-14-1-2c-19-34-15-87-4-123l2-5v-3q-1-9 5-16l22-21 3-3q13-9 30-6 10 1 19-3l3-1 2-1c14-5 31 2 43 9"/><path fill="#eba06b" d="M337 342q2 5 1 11v15c-1 18-1 18 3 36 3 7-2 19-4 25l-1 4-3 10-1 3q-1 5-6 8l-1 1-5 5q-10 9-19 21l-6 8-4 5h-2l-3-4-8-7-3-3-2-2a301 301 0 0 1-64-66l-2-2-6-10q-3-5-3-12l1-15v-2l1-27h2l3 3c12 15 31 30 51 32q41 2 69-26z"/><path fill="#462942" d="M157 404v13q1 9 3 16l1 16v4l1 23q14 0 25-8l3-1q15-6 25-17l5-4 4 1 5 6q6 8 14 12 6 4 11 9l-1-3-2-5 9 6 3 2 6 6-7-2 3 3 3 1h3l2 1v2h2l7 5 3 3q4 3 3 6l-4 6a69 69 0 0 0-12 35v2c-45 1-109-9-144-40q-1-7 2-13l6-30 6-28 1-3 1-6q-1-8 6-15l2-1 1-1z"/><path fill="#e89f68" d="M249 279h17q14 0 29 4l11 2 2 1 1 2q-4 3-9 2h-4l-19 1h-59q2 4 7 5l2 2q15 11 34 9h3l11-1h-2q-19 2-36-4v-2h-2l-6-4v-2l30-2h40l-2 4h-2l2 2 1-1 11-8 3 1 1 4v5l1 3v4l1 2 2 1 1-2 1 8-3-3-1 3-13 22-1 2q-4 7-11 7-7 1-13-2-11-5-22-1l-4 1q-8 3-17 0-15-10-20-28v-2h-2l-1-3h2v-2c0-14 0-14 4-19q10-7 21-9 6-2 11-2"/><path fill="#e8e5ee" d="m295 66 3 1q43 13 64 52 8 15 12 31l1 2c5 17 3 34 3 51h-2l-1-3-7-28 1-1q-1-12-11-22l-15-15-23-20-2-2v-2h-2l-9-5-2-1-9-6q-8-5-18-8l-4-1a85 85 0 0 0-76 11l-2 1-19 16v-6q11-21 31-31h4v-2l2-1 3-1 2-1 6-3 16-5 4-1q25-7 50 0"/><path fill="#752b43" d="M157 404v13l2 14 2 21 1 14h-2l4 34 11 1 24 1-1 5-34-1 1 8 19 1h4q10 1 20-2v-2l-4-1-1-9h4l-1-7v-2l-2-10v-7l1 2 6 18 17 1 2 5 1 1-1 9v5h10v-6l-1-4-1-6v-5l2-1 5 2v5h3l4 1v5l-5 1v8h7l-1 22h10l8 1v2a249 249 0 0 1-143-39q-1-7 2-13l6-30 6-28 1-3 1-6q-1-8 6-15l2-1 1-1z"/><path fill="#bab8cd" d="m283 94 6 3 14 7 2 2a200 200 0 0 1 38 30c9 8 21 19 24 31v2q-4 1-7-2l-19-19q-13-16-30-26l-2-2-10-4-8-3c-20-4-43-6-62 3l-2 1q-13 5-24 14l-5 3v2l-2 2q-17 15-26 36-5 0-9-5l-2-2q-3-7-2-15 6-20 22-34l3-3c24-26 68-38 101-21"/><path fill="#261d1a" d="M290 61v2h3q9 2 17 6l6 2 8 4v2l2 1c8 3 19 9 23 17h-2l-1 2-1-1q-5-7-14-11l-2-2-10-6q-37-20-77-10l-8 3-7 3-7 3-8 2v2l-3 1q-22 10-32 32v3l2-2q12-11 28-20l2-1q30-16 63-6 22 7 40 20l4 2q4 2 7 6l37 35q9 7 10 19l-1 4 2 7q5 13 6 25h-3v3q1 6-5 9l-4 6-1 2h-2l-1 15h-1v-25q0-19-9-34-4-5-3-10 1-12-7-20l-8-8a93 93 0 0 0-57-29q-7 0-15 5-7 3-14 2c-15-1-25-1-37 9l-13 11-2 2q-10 6-11 19v3l-2 12c-7 19-7 40-8 60v16h-1v-29h-2v10q1 6-2 11l-4-9q-1-7-6-11v-2q6 3 8 7l2 5v-10q1-5-2-9l-9-4v-1h7v-2q-3-12-2-25c0-8 0-8-4-14l-2-2q-4-5-3-11 2-17 14-30l4-8a66 66 0 0 1 37-42l4-2q15-7 32-12l4-1q20-5 41-1m-119 66q-14 14-14 33 1 5 4 9l2 3 6 2q3-1 5-5l1-3 1-2q7-12 16-22l2-3 4-3v-2l2-1 6-4q9-7 19-11l2-1q16-7 33-6h4a76 76 0 0 1 40 8 100 100 0 0 1 31 22l21 23c4 4 4 4 9 5h2q-4-14-16-24l-2-3-17-16-3-2a146 146 0 0 0-48-31c-41-18-83 2-110 34"/><path fill="#948a89" d="m145 406-1 2-4 19-2 12-4 22-4 16-4 14c-1 6-1 6-3 8q-26-18-49-40l-2-3-2-2-2-2q-5-4-4-7 1-9 7-14l10-4 7-3 18-6 13-5 5-1 3-1 5-2 2-1h2q4-3 9-2"/><path fill="#752f4b" d="m197 351-1 4-5 2-2 1-2 1q0 18 8 34l1 3q9 19 23 35 4 4 3 7h2v2l-5 3-8 7c-5 4-13 11-19 11v2l-3 1-17 7-5 1v-2l-1-10-1-4-4-32q-3-18 5-34l6-14 2-4q4-11 14-20z"/><path fill="#1c120c" d="M347 95c11 4 15 18 20 28l2 4q5 13 9 27l1 4q3 13 2 28v3l-1 18h4q3-1 6 2 10 10 8 23v3q0 14-4 27l-1 4c-7 22-7 22-15 27q-6 2-13 1l-4-2-1 9q-4 18-15 31-4 7-3 14v10h-1l-1-15-1 11v8l-1 27h-1v-44l-14 14c-26 20-26 20-37 19l1-2h2v-2l2-1a94 94 0 0 0 24-14q20-14 32-35l2-3q11-21 9-45l-2 1 2-15 2-25 1-17h1v7h2l1-2q2-6 7-11h2l-1-9 1 2h3c1-29 1-29-5-58l-1-3q-6-24-22-43z"/><path fill="#712943" d="M342 373q8 7 12 17l1 2 4 10 6 12q8 13 12 28l7 16 5 15 3 9 1 6c-9-4-17-15-22-23l-2-2-2-10-1-3v-3l-4-1-1 2-5 6-3 1-2 2-3 2-11 5h-2l-9 2v2l-2 1q-14 8-23 22l-2 1q-3 4-4 9l7-1-1 41-12 1h-14q1-17 10-32l14-21 6-7 3-3 4-6 16-16q7-7 9-16l4-12q7-19 2-39-2-8-1-17"/><path fill="#6f2b45" d="M367 411q14 7 24 17l7 5 10 8 5 3c10 7 18 28 21 40q0 5-3 7c-43 31-43 31-58 31l-1-4-1-2v-14h3v-20h1l1 7 2 1q8 1 14 6v2h3v2l1 2 3 1v-2h2q1-14-7-27l-1-8h-2l-3-4-1-4-2-6q-7-18-15-34z"/><path fill="#c77750" d="M337 342q2 5 1 11l-1 2v6h-2l-1 2c-7 17-26 29-42 35q-26 9-50-1-12-5-21-13l-3-2q-10-9-13-22l-1-2-1-7h-1l-1 13h-1v-20h2l3 3c12 15 31 30 51 32q41 2 69-26z"/><path fill="#191013" d="M343 370q6 2 8 8l1 2 10 20q1 5 6 7l2 2q6 2 10 6l1 1 10 7 2 1 11 9q10 7 22 7l10 2v2h2l26 7 2 1 4 4c-26 27-26 27-36 32l-1-3c-8-25-8-25-25-43l-6-5-35-26 19 43 8 23 1 2 1 14q-5 0-9-4l-2-2-2-2-2-2q-15-12-18-30l-2 2-3 2-3 1-4 2v2c-9 5-9 5-14 6q-15 3-25 15c-10 16-9 40-9 58h-2l1-41-7 1q1-7 6-11l1-2c15-19 15-19 24-20v-2l4-1q20-4 32-19l5 1v3q1 11 8 19l2 2c7 10 7 10 16 17l-1-2-4-14-11-30c-7-19-7-19-18-36l-3-7q-3-15-13-25l-1 12h-1v-14h2z"/><path fill="#c67850" d="M310 124q17 11 31 26l2 2q6 6 5 15v6l-1-1-28-21v-2l-2-1-28-11q-15-5-30-4h-4q-14 0-29 5l-8 2v2l-3 1q-12 7-22 16c-6 6-6 6-9 6q-2-6 2-13l10-11q6-7 14-12l3-3q13-9 30-6 10 1 19-3l3-1 2-1c14-5 31 2 43 9"/><path fill="#31231b" d="m283 268 25 8 4 2q6 1 9 7 1 13-4 24l-3-1-3-18-15 9-1-3 4-4-44 1h-4l-22 1c3 4 3 4 8 6v2a104 104 0 0 0 33 3h10q-9 4-19 3h-3q-19 0-34-12l-3-1-2-1-1-3 39-1h3l40-1h3q3 1 5-2l-2-1-14-3-3-1h-3l-5-2h-33q-8 0-15 3l-3 1-3 2-3 1-3 1-2 1q-4 1-4 5l-1 9v2l-1 6-4-2-2-6-1-3-1-9h-2q0-10 6-17h2l-5 10 1 1 3-3q8-5 17-9l4-1q11-6 23-4l3 2q5 1 9-1 9-4 17-1"/><path fill="#e0dde6" d="m283 94 6 3 14 7 2 2a200 200 0 0 1 38 30c9 8 21 19 24 31v2q-4 1-7-2l-19-19q-8-10-18-18l-5-7-4-3-11-8a97 97 0 0 0-67-18q-14 3-26 10l-10 3-2 1-1 3-5 3q-14 9-21 22l-2 2q-4 10-3 19l-1 3q1 7 4 13-4 0-7-3-5-6-5-15c1-15 12-26 22-37l3-3c24-26 68-38 101-21"/><path fill="#362f4e" d="m200 463 7 36v2h-4l1 4v3l1 2 3 1v2q-11 4-24 3h-4q-8 1-16-2v-8h34l1-4h-28q-4 1-8-2l-1-5-1-2-1-27h2v10q14-1 25-8l7-3 2-1z"/><path fill="#872d42" d="M330 484h3l1 21h7l18 1 2 1 6 1v5h-32l-1 7h4l30 2v3q-31 12-65 16c-1-31-1-31 3-43l4-1h2v-2l5-2 1 12h9l-1-19h4z"/><path fill="#c17751" d="M311 176h2q12 0 19 6l2 1 5 6v3l-2-1h-2l-2-1q-17-5-32 1h2q14 0 25 8v3l-2-1q-10-6-22-4l-1 1h2q16 1 28 13l1 3q-7 0-12-5l-1 3q-2 6-7 8l-10-1-5-7v-5l-2 1-6 2-3 4-1 2-11-1q-4-5-2-12v-8h2v-2l3-5 1-3q1-4 4-6l8-2h2z"/><path fill="#c2644d" d="m312 290-1 2-2-1v2l-3 3-5 5-2 2-3 4-8 6-1 2q-4 5-9 7-17 4-35-2-4-2-5-6l-4-3-7-7v-2l-2-1q-3-1-4-6 4 0 6 3 15 11 34 9h3l11-1h-2q-19 2-36-4v-2h-2l-6-4v-2l30-2h40l-2 4h-2l2 2 1-1c10-8 10-8 14-7"/><path fill="#e6a16e" d="M387 210q7 6 8 14 1 28-8 52l-1 2q-3 8-10 13h-7q-3 1-5-2-3-4-2-10v-2l3-30q6 1 8 5-1 9-6 16c5-5 5-5 7-11v-6l-2-6h-2l4-11 1-3 8-9h2q5 6 4 14v2l-1-14-1-3h3v-2q-7-1-12 4-5 7-9 15l-3 6q-2-15 7-28 5-7 14-6"/><path fill="#7b2d48" d="m197 351-1 4-5 2-2 1-2 1q0 18 8 34l1 3q9 19 23 35 4 4 3 7h2v2l-5 3-10 8-1-2-11-29-1-2q-1-5-5-8l-3 3-3 3-2 2-1 2-2 2-3 2v-2l-7-27-2 4-2 2-2 5h-2a45 45 0 0 1 6-20l5-12q5-12 15-22z"/><path fill="#ad2b3e" d="m203 475 2 1 2 7 4 12 17 1 2 5 1 1-1 9v5h10v-6l-1-4-1-6v-5l2-1 5 2v5h3l4 1v5l-5 1v8h7l-1 22h10l8 1v2c-56 0-56 0-62-6v-13l-1-7v-9q-1-13-4-24z"/><path fill="#bf754f" d="m226 180 2 1q5 0 8 3l1 6h2l1 2 1 3h2l4 3 1 14v3q0 9-2 16h-1v-16h-8v2h-2l-5-5-6-4v4q1 4-2 7-5 4-11 2-5-2-7-6v-7l-7 4-3 4h-4q3-8 10-12 9-4 17-3v-3l-16 1q4-5 10-4v-2h2l-1-3c-14-1-14-1-26 6h-2q2-9 10-14c9-6 22-3 32-2"/><path fill="#342e52" d="M343 419h1l1 2 2 10 1 4 5 21q-7 6-16 8h-2l-9 2v2l-2 1q-14 8-23 22l-2 1q-3 4-4 9l7-1-1 41-12 1h-14q1-17 10-32l14-21 6-7 3-3 4-6 16-16q7-7 9-16l4-13z"/><path fill="#211a16" d="M261 110h2c16 0 16 0 24 2l1 2h-3a44 44 0 0 0-25 5q-8 3-17 2c-14-1-22 0-33 9l-13 11-2 2q-10 6-11 19v3l-2 12c-7 19-7 40-8 60v16h-1v-29h-2v10q1 6-2 11l-4-9q-1-7-6-11v-2q6 3 8 7l2 5v-10q1-5-2-9l-9-4v-1h7v-2l-1-13h3v-2q0-25 17-44l10-12 2-2h2v-2q14-12 31-19l3-2q15-4 29-3"/><path fill="#180e11" d="M340 340h1v14l1 4v7l1 7h-2q0 12 4 22c4 13-1 31-6 44l-2 7q-5 11-16 19l-8 10-7 8a144 144 0 0 0-22 32q-7 13-9 28h-3q0-22 13-40l2-5q-1-4-6-7l-3-2-5-3v-2h-3l-8-3v-2l6 1-6-5-2-1-7-5 1 6q-4-1-6-5l-7-4q-12-6-17-18l-1-2-3-1 3-3q5 1 6 6 6 11 18 15l-2-2-2-2-3-3q-2-1-2-6 7 2 11 8l23 20 13 10 2 1 2 6 7-8 9-11 2-2 10-10c13-12 17-21 20-38l3-12q2-6-1-11l-1-15v-31c0-14 0-14 2-16"/><path fill="#442f29" d="M290 61v2h3q9 2 17 6l6 2 8 4v2l2 1c8 3 19 9 23 17h-2l-1 2-1-1q-5-7-14-11l-2-2-10-6q-37-20-77-10l-8 3-7 3-7 3-8 2v2l-3 1q-22 10-32 32v3l2-2q12-11 28-20l2-1q30-16 63-6 21 7 39 19l-4 2-7-4q-7-5-15-8l-4-2q-30-12-62-2c-23 10-48 28-58 51q-4 10-3 20l4 6 2 2q3 3 7 2l-2 9-2 14h-3v5h-1v-17c0-8 0-8-4-14l-2-2q-4-5-3-11 2-17 14-30l4-8a66 66 0 0 1 37-42l4-2q15-7 32-12l4-1q20-5 41-1"/><path fill="#e6a676" d="M164 213q5 2 6 6v19l-5-9q-2-4-6-6l1 2c8 12 8 12 8 19l-3 4q-3 6-1 12l5 7-2-3q-3-6-2-13l3-4h2v3l3 19v2l2 19q-6 2-10-1c-8-8-9-17-11-27v-2l-3-27v-3q0-9 4-16 5-2 9-1"/><path fill="#a8a6bc" d="M347 98q6 4 9 11l2 2q10 18 16 39l1 2c5 17 3 34 3 51h-2l-1-3-7-28 1-1q-1-12-11-22l-15-15-24-21h4l21 13 7 6 3 2-3-21-3-8v-3z"/><path fill="#90273e" d="M157 404v13l2 14 2 21 1 14h-7q-2 0-5-3l-1 3h-13l3-21 5-23q-1-8 6-15l2-1 1-1z"/><path fill="#716967" d="m145 406-1 2-4 19-2 12-4 22-4 16-4 14c-1 6-1 6-3 8l-9-6 2-13q3-7 3-15l7-31 1-3q1-8 5-15l1-6-4 1 3-3 3-1h2z"/><path fill="#6b2a45" d="m135 464 1 2h16l2 9v2l1 23h-3l1 4 3 2v7q-10 1-18-5l-3-1-7-5q0-7 2-14z"/><path fill="#902d46" d="m191 409 1 3 3 1 3 7 1 2 6 15 1 2q3 7 3 13l-9 6-8 3v2h-3l-2-8-1-2-1-10-4-1v2l-3-1-2-6v-3l-1-3 2 1-1-3q0-5 3-7z"/><path fill="#948b89" d="M418 443q13 0 24 5l4 1 22 8q-13 16-29 28-4-3-5-8l-7-18-1-2-6-9z"/><path fill="#3b3153" d="m425 464 5 9 3 9v7l-5 4-2 2c-13 9-13 9-18 9v-3l-2-5v-4q-2-10-7-19v-6l26-1z"/><path fill="#552e4e" d="M160 466h2v11h4v5h2l1 13 28 1-1-8v-9l3-1 5 26 1 6 3 1v2q-11 4-24 3h-4q-8 1-16-2v-8h34l1-4h-28q-4 1-8-2l-1-5-1-2z"/><path fill="#f1c5a4" d="M186 167h1l-2 33-1 3v4l-1 3-1 4v23c-1 26-1 26 6 51l2 15h-2a178 178 0 0 1-6-132h3z"/><path fill="#503150" d="M336 481h3l1 18h6l20 2-1-15h4q3 16 3 32l4 1h-3v4l-5 1v-2h-2l-32-2v-7q3-2 7-1h18l8 1-1-5h-2l-19-1-3-1-8-1-1-17v-5h2z"/><path fill="#bd6047" d="M249 279h17q14 0 29 4l11 2 2 1 1 2q-4 3-9 2h-4l-19 1h-59l-1 2-1-3q10-6 22-9 6-2 11-2"/><path fill="#873143" d="m239 494 6 2v5h3l4 1v5l-5 1v8h7l-1 22h10l8 1v2l-40-1-1-7v-16q4-2 10-1v-6l-1-4-1-6v-5z"/><path fill="#eeeeed" d="M255 292h44q-4 8-15 10-23 9-47 0v-2h-2l-6-4v-2q13-2 26-2"/><path fill="#842d46" d="M374 482h1l1 7 2 1q8 1 14 6v2h3v2l1 2 3 1 1-2h2l1-5 5 1v7l2 1-24 12c-9 5-9 5-13 5l-1-4-1-2v-14h3z"/><path fill="#afa6a4" d="M133 410v6a51 51 0 0 1-18 10l-8 3-5 2c-25 9-25 9-29 9v3h-2v3l-3 6-4-5q0-8 5-15l12-5 7-3 18-6 7-3h2l5-2z"/><path fill="#80293e" d="M330 484h3l1 21h7l18 1 2 1 6 1v5h-32l-1 2h-6v5q-5 3-10 1l-1-15h-12l2-9h5v-2l5-2 1 12h9l-1-19h4z"/><path fill="#862a45" d="M354 405v2h2q1 9-1 17l4 1v4l4-2 1 18-2-1-1 3q-1 5-7 8h-2c-11-37-11-37-5-50z"/><path fill="#672944" d="M233 479c6 3 6 3 8 6l5 3q2 3 3 7l8 1v3h-4v2h3q10 1 19 3l-1 5-6 1h-6l-2-1h-7v7h-6l-1-8 4-1h2l-1-5-6-1-1-5-5-1 2 13v8q-3 2-7 1l-4-1-1-4v-4l1-1-1-7 9 1-1-6-1-4-2-6z"/><path fill="#482747" d="M367 411q14 7 24 17l7 5 10 8 5 4 3 4h-2l-1-2h-2c-20 1-20 1-28-4l-1 3v-2l-11-23-1-3z"/><path fill="#702940" d="m302 500-1 41-12 1h-14a40 40 0 0 1 3-18l4-8h1l1 6 3 5c5 1 5 1 9-1q3-6 1-12l-4-6 1-1 3-6z"/><path fill="#271b15" d="M311 176h2q12 0 19 6l2 1 5 6v3l-4-1-3-1-4-2-11-1h-2l-18 2h-15l-1-4 1-5q4-2 10-3h2z"/><path fill="#c8825a" d="m284 242 6 4v10l-5 5h-3v-2c-9 1-9 1-16 5q-7 4-14 2l-10-2h-4q-5-1-8-6t-1-10l3-5h2l-1 2-2 9 2-1h10l8 2v2l18-3 16-1v-2h3z"/><path fill="#912d42" d="M312 505h3l3 1 1 32-16 3v-25l1-10z"/><path fill="#742945" d="M157 404v13l3 17v8l-9-1v6h-7v-9h-2q0-8 2-17v-3q1-7 7-11l2-2z"/><path fill="#4e243a" d="M333 470v14h-3v2h-4v2l1 10v7h-9l-1-12-5 2v2h-5q1-14 13-23 6-4 13-4"/><path fill="#241c18" d="m320 201 14 11v2q-7 0-12-5l-1 3q-2 6-7 8l-10-1-5-7v-5l-2 1-6 2q-3 1-4 5h-2q2-7 8-11 13-7 27-3"/><path fill="#6f2c44" d="M200 463h2l2 11 5-1q6-3 12-2 4 4 4 9l3 11 1 9-1-4h-17q-5-9-7-20l-2 2z"/><path fill="#a93044" d="m191 409 1 3 3 1 3 6 1 3v6l-7 8-2 2q-3 5-7 4h-2v2l-3-1-2-6v-3l-1-3 2 1-1-3q0-5 3-7z"/><path fill="#6a2840" d="M254 517h21l-3 25h-15l-19-1v-1h16l17 1v-2l-18-1z"/><path fill="#2d1f18" d="m226 180 2 1q5 0 8 3l1 4-3 4-12-1-16-1q-11-1-20 6h-2q2-9 10-14c9-6 22-3 32-2"/><path fill="#1e130f" d="m177 294 4 6 1 2 2 6q10 30 34 47l2 2 6 4 3 2a65 65 0 0 0 30 13l1 2c-23 1-37-12-53-27l-2-2-3-3v-2h-2v39h-1l-1-36h-1v-4l-5-11-4-5q-11-15-11-33"/><path fill="#201a16" d="m224 203 12 10-1 3-11-8v4q1 4-2 7-5 4-11 2-5-2-7-6v-7l-7 4-3 4h-4q3-8 10-12c6-3 17-4 24-1"/><path fill="#140e18" d="m355 453 2 1q-8 11-20 14-15 3-25 15c-10 16-9 40-9 58h-2l1-41-7 1q1-7 6-11l1-2c15-19 15-19 24-20v-2l4-1q13-3 25-12"/><path fill="#3c3a3c" d="m311 106-4 2-7-4q-7-5-15-8l-4-2q-30-12-62-2-23 10-41 28l-1-2h-2l1-3h2l3-3q12-11 26-18l2-1c35-19 71-6 102 13"/><path fill="#553559" d="m205 413 8 10 3 4 1 1 3 5q3 2 2 5h2v2l-5 3-10 8-1-2-3-8-1-3-1-3-1-3-2-4v-6l2-1q2 0 3-5z"/><path fill="#7b7271" d="m418 443 11 1-3 2 2 1 2 2 2 1q7 7 10 16l1 2c4 7 4 7 3 11l-4 3-2 2-2 1-7-17-9-19z"/><path fill="#d2996d" d="M387 210q6 5 8 12v14q1 9-2 18h-1v-2l-1-22h-1l-3-9h3v-2q-7-1-12 4-5 7-9 15l-3 6q-2-15 7-28 5-7 14-6"/><path fill="#892b42" d="m209 493 2 2 9 1h2l7 2 2 4-1 9v5h-19z"/><path fill="#1b1112" d="M198 395h2l5 8 13 20 2 2 17 20q3 2 2 5 0 5 5 8l2 2 2 2h-4q-13-5-18-18l-3-3h-2l3-1v-2h-2l-1-3-7-8-10-15-1-2q-5-7-5-15"/><path fill="#140c0d" d="M145 405h7l-3 5q-3 4-4 10v2l-8 39-3 15-6 25-4-1 4-22 13-60z"/><path fill="#3f335f" d="M343 419h1l1 2 2 10 1 4 5 21-8 5-2-1v-5l-2 1-10-1 2-3 5-13q0-5 3-11z"/><path fill="#4d2c4b" d="M160 466h2v11h4v5h2l1 13 29 1 1 6h-28q-4 1-8-2l-1-5-1-2z"/><path fill="#81304f" d="M342 373q14 13 17 32l2 4 1 5v4l-4 1-1 5h-2l1-17h-2v-2h-7l-1 3v-2q0-7-3-14-2-9-1-19"/><path fill="#382012" d="M380 207h8q8 6 10 17v11q0 14-4 27l-1 4c-7 22-7 22-15 27q-6 2-13 1l-4-2v3l-2 8h-1l1-16h2l1-3 2 6c8 1 8 1 15-2q7-12 11-26l1-2 4-27v-3q-1-10-6-18l-5-1z"/><path fill="#251b13" d="m154 401 4 2v23h-1v-22l-5 3v-2q-15 3-29 8l-8 3-19 6-3 1-16 7-4 1q-6 5-8 12l-1 3-5-5v-2l3-1 2-4q7-9 19-11h2l5-2q6-4 12-5l2-1 22-7 3-1q9-4 18-4 4 1 7-2"/><path fill="#150b12" d="m362 446 5 1v3q1 11 8 19l2 2c7 10 7 10 16 17l-1-2-4-11v-3l-1-3-1-5 4 1 2 4v3l1 3 1 2q3 8 2 16-5 0-9-4l-2-2-2-2-2-2q-15-12-18-30l-10 7q0-5 5-9l2-3z"/><path fill="#bc704b" d="m384 222 4 4v11l-3-6-5 3v4l2 11v3q0 7-5 12l-2 2-6 2 1-2q6-7 4-17l-2-4h-2l4-11 1-3c5-8 5-8 9-9"/><path fill="#261715" d="M347 95c11 4 15 18 20 28l2 4q5 13 9 27l1 4q3 13 2 28v3l-1 18h-1l-1-17a155 155 0 0 0-29-89z"/><path fill="#4e2b4b" d="M390 466h3l1 3 5 12q3 6 2 13v7h-2v2l-4-1v-4h-3v-2l-2-1-10-4-3-1q-3-1-4-5v-10l10 9 2 1 3 3q3 5 8 5-1-13-6-25z"/><path fill="#43335e" d="m197 351-1 4-5 2-2 1-2 1q-1 17 7 32l5 12-4 1-1 4h-2l-3-10-1-3c-7-20-7-20-5-27v-7h-2l7-9z"/><path fill="#e1aa80" d="M164 213q5 2 6 6v19l-4-7q-2-5-6-8l-5-1v2h2v2l-2 10v8l2 1h-3l2 12-2 1-3-24v-3q0-9 4-17 5-2 9-1"/><path fill="#712e47" d="m334 505 25 1 2 1 6 1v5h-32l-1 2h-6v5q-5 3-10 1v-9h16z"/><path fill="#c97952" d="M155 222h5v2l3 6q5 6 5 14l-3 4q-2 6-1 12l2 6q-6-4-7-11l-2-6v-4l-2-1v-10q0-6 2-10h-2z"/><path fill="#412c1d" d="M164 206h1v5l-6 3q-4 1-6 5-4 22 2 44l2 7q1 11 10 19l7 1 2 3q-6 2-11-1c-10-8-12-21-14-33l-2-6c-2-13-5-27 3-39q3-4 9-4h3z"/><path fill="#412b24" d="M299 291v1h-2l-42 1h-4l-22 1c3 4 3 4 8 6v2a104 104 0 0 0 33 3h10q-9 5-19 3h-3q-19 0-34-12l-3-1-2-1-1-3q41-2 81 0"/><path fill="#edbd97" d="M201 347q4 2 4 5a198 198 0 0 1 1 40v12q-7-5-8-14v-7l1-4v-8l1-3 1-14v-7"/><path fill="#793146" d="M374 482h1l1 7 2 1q8 1 14 6v2h3v2h-2l-2 1h-3l-4 2h-7v18l-4 1-1-4-1-2v-14h3z"/><path fill="#502e4e" d="m425 464 3 7h-25v4h4l3 11 1 3 1 3v3l1 5 3 1c-5 3-5 3-8 3v-3l-2-5v-4q-2-10-7-19v-6l26-1z"/><path fill="#972a40" d="M130 493h16l3 13v7q-7-2-13-6l-2-1-6-4q0-4 2-9"/><path fill="#512d52" d="m381 421 8 5 2 1 2 2 2 1 13 11 5 4 3 4h-2l-1-2h-11l-7-1q-3-3-3-8v-2h-2l-1-5h-3v-2l-7-2z"/><path fill="#a52b3c" d="m383 443 13 4v4h2l5 15h-7l-7-1-2-7-1-2q-2-6-3-13"/><path fill="#432f52" d="m280 501 2 1q0 8-3 14l-2 2-2 5h-1v-5h-10l-3-1h-5l-3-1v-7h20l2-5q2-4 5-3"/><path fill="#904c6d" d="M184 360q1 8-2 15h-3v3l-5 10-6 9-2 3-2 6h-2a45 45 0 0 1 6-20l7-16 1-3q2-5 5-6z"/><path fill="#b02b3d" d="M304 521h13l1 5v12q-6 3-14 2z"/><path fill="#321c14" d="M390 219v2l-2 1 2 3q3 11-1 21h-1v-15l-1-3q0-2-3-5-8 5-11 14l-3 8h2q5 6 3 11-1 8-6 12h-2q0-4 3-7t2-8q0-3-4-5l-3-1v-11h1l1 5 1-3c10-21 10-21 22-19"/><path fill="#2c2321" d="m287 112 13 4 2 1q18 8 31 21l3 3q7 6 13 15h-2l-1 2-2-2q-23-29-59-41z"/><path fill="#a33248" d="M354 405v2h2q2 7-1 14l-7 4 4 21 1 8c-7-10-11-27-9-39q1-5 3-10z"/><path fill="#272830" d="M309 107c7 1 9 3 14 8l37 35q9 7 10 19v2q-4-4-6-9a123 123 0 0 0-35-37l-11-9-2-2-5-3-2-2z"/><path fill="#aea3a0" d="M425 445q10 0 19 4l3 1 21 7-5 6-20-7-2-1-8-5-7-3z"/><path fill="#6e2944" d="m150 462 1 3 9 1v4c0 14 0 14 4 27l-2 3-7-1v-3l-3-30h-3z"/><path fill="#110b0b" d="M340 340h1v14l1 4v7l1 7h-2c0 16 0 16 4 31v6l-2 1-2-4-1-2q-2-5-2-11v-37c0-14 0-14 2-16"/><path fill="#de966e" d="M250 279h16q15-1 29 4l6 2h3l2 1-1 2c-21-3-21-3-27-6h-8l-6 2-8-1q-15 0-30 5v-2l2-1h3l3-1 3-3q6-3 13-2"/><path fill="#432e50" d="M222 468q5 2 7 7c4 8 4 8 4 12l3 1 1 5 1 3v5l-9-1-2-8-1-2-3-11-1-5z"/><path fill="#21130f" d="m289 509 8 2q3 6 1 12l-4 5h-7q-4-4-3-9v-3q0-5 5-7"/><path fill="#3a2c50" d="M323 475v2l1 4v3l2 5 1 9v7h-9v-24l1-5z"/><path fill="#722b44" d="m340 521 28 1v3l-12 4-3 1-3 1-3 1-6 1z"/><path fill="#211211" d="m197 348-2 1 2 2h-2q-8 1-13 8l-10 19-9 22h-3l-4 1 1-1 10-20 3-8c9-19 9-19 20-24z"/><path fill="#512e54" d="m365 415 7 11 1 2 4 15q-5 1-8-2l-5-7v-7l-2-2h-2v-2h-2l1-4h6z"/><path fill="#932c41" d="M172 429c5 14 5 14 4 20q-5 3-10 2l-3-18z"/><path fill="#4b3b64" d="M144 466h7l2 10v3l1 15h-6q-3-5-3-11v-2z"/><path fill="#39315b" d="M216 429c6 5 6 5 6 9h2v2l-5 3-10 8c-4-10-4-10-2-14q2-4 7-6h2z"/><path fill="#30251e" d="M412 439q12-1 24 3v2h2l26 7 2 1 4 4h-8l-3-1-3-1-3-1-35-10-1 2v-3l5-1-10-1z"/><path fill="#792944" d="m178 453 2 1 1 8v5l-5 3-3 1-6 1v-12q4-6 11-7"/><path fill="#493e69" d="M169 394h1v2l4 16q3 7 2 14l-6 1c-7-23-7-23-3-31z"/><path fill="#6f2f49" d="M161 401h1v5h2l1-5h1v3l4 23 3 1-10 5-2-10v-22"/><path fill="#2e2119" d="M246 323h3l13 1h3l15-1q-3 7-10 9-11 2-20-4l-2-2-2-1z"/><path fill="#261b1a" d="m227 116 2 1-1 1 3 2-4 1-12 5-2 2q-12 8-22 19l-2 3h-3l-2 3-2-1 2-2 10-12 2-2h2v-2l7-5 2-2z"/><path fill="#443b6b" d="M197 478h2l5 26 1 6 3 1v2q-4 3-9 2v-3l-2-18-1-15z"/><path fill="#782b44" d="M205 443q3 3 2 8l2 1-9 6-8 3v2h-3l-1-6c3-5 11-14 17-14"/><path fill="#af3242" d="M376 502h1v5l5-1h3l6-3 5 1v6q-8 6-18 5l1 5-2 1z"/><path fill="#642f4d" d="M151 466q4 4 3 9v2l1 23h-3l1 4 3 2v7h-7q-2-5-2-11l-1-4v-7l2 2 6 1v-2l-1-10-1-3v-3l-1-3z"/><path fill="#280e17" d="M309 486v5l-2 6q-3 15-4 31v13h-2l1-41-5 1q3-8 9-14z"/><path fill="#8d2e33" d="m302 500-1 41h-3v-17c0-9 0-9-5-16l1-1 3-6z"/><path fill="#812a42" d="M231 516h10l-2 21h-8z"/><path fill="#732c47" d="m343 455 1 5-20 7-1-3q0-5 5-8 7-2 15-1"/><path fill="#6d2a45" d="M163 500h2l10 1h2l22 1-1 5-34-1z"/><path fill="#5b2739" d="m373 475 20 18v2h2v3h-3v-2l-2-1-10-4-3-1q-3-1-4-5v-10"/><path fill="#262134" d="m197 357-1 24-2 2q-7-11-5-23 3-4 8-3"/><path fill="#453a69" d="M365 486h4q3 16 3 32l4 1h-3v4l-5 1v-3z"/><path fill="#5f2a47" d="M342 373q9 6 11 17h-3v4q0 4-4 7-5-14-4-28"/><path fill="#a94b4a" d="m203 475 3 3v2l1 3 1 3v3q4 16 3 33v13h2l7 1h6l2 1h2l1 2c-19-1-19-1-22-4v-13l-1-7v-9q-1-13-4-24z"/><path fill="#94243d" d="M157 404c1 11 1 11-2 15l-3 2-2 2v-2h-5q-1-7 3-12l3-2 2-2z"/><path fill="#7e2b44" d="m327 521 1 11v5l-9 1v-16z"/><path fill="#44355c" d="M343 419h1l1 2 2 10 1 4 5 21-4 1-7-24h-2z"/><path fill="#241614" d="M343 370q6 2 8 8l1 2c11 16 11 16 10 25l-1 2q-4-3-5-8-3-14-13-25l-1 12h-1v-14h2z"/><path fill="#c07b52" d="M277 259h5v2l-2 1h-3l-3 1-3 2 3 2-3 1-7 3c-6 0-6 0-10-2l-7-1v-1h3q11 0 19-7z"/><path fill="#291d11" d="m96 421-14 7-2 1-5 2q-6 1-8 7l-3 8-5-5v-2l3-1 2-4q7-9 19-11h3l6-2z"/><path fill="#533255" d="M184 444v4l1 3 1 6h2l1 6-8 4-1-15h-2l-1-7z"/><path fill="#863851" d="m198 427 4 3 1 2 1 3 1 3 1 3 3 10h-2l-2-7-1-2-2-9-8 7-2 2q-5 4-5 9-2-3-2-8l-2-1 2-1 8-6 2-3z"/><path fill="#ab2c3c" d="M242 517h5v23h-7l1-10 1-7v-6"/><path fill="#423257" d="m170 508 29 2v3l-28 1z"/><path fill="#140d0b" d="m318 355 2 1q0 4-3 6l-2 1-3 2c-18 12-18 12-26 11l1-2h2v-2l2-1q15-6 27-16"/><path fill="#1d1c1f" d="M363 170h5c8 27 8 27 9 35h-3l-5-16-4-13v-3h-2z"/><path fill="#692a42" d="M330 484h3l1 21h-7l-1-19h4z"/><path fill="#4a3530" d="M299 291v1h-2l-42 1h-4l-22 1-1 2v-4h-8v-1q40-2 79 0"/><path fill="#3a221a" d="M238 255q6-1 11 4 5 4 12 4 4-1 6-6 6-2 12-2l1 3h-3q-5 1-9 5-6 4-13 4l-9-6q-4-3-8-3z"/><path fill="#502d4a" d="M240 485q5 1 8 5l1 5 8 1v3h-4v2h3q10 1 19 3l-1 2-3-1-26-4-1-2v-4l-1-3z"/><path fill="#3f3250" d="m200 468 2 6 3 10q3 5 2 12v5h-4l-1-8-1-2-2-13q-3 2-4 5v-5l5-2z"/><path fill="#942a3e" d="M241 516h7v22h-1v-21h-5v2q1 11-2 21h-9l-1-7v-16h1v20h4v-11h1v11h3v-2q0-10 2-19"/><path fill="#140d0a" d="m177 294 4 6 12 30-1 2c-8-10-16-25-15-38"/><path fill="#e1ab89" d="m152 219 5 5-1 4-1 8v8l2 1h-3l2 12-2 1q-4-12-3-25v-8z"/><path fill="#2a1b16" d="M163 173h8l-2 9-2 14h-3v5h-1z"/><path fill="#b16345" d="m284 242 6 4v10l-5 5h-3v-2h-9v-1h7l-1-2h-8l4-3h10v-2h3z"/><path fill="#bc6e4b" d="M232 243h2l-1 2-1 10q2 4 5 4l1-3v2h2q8 1 13 7-5 1-11-1h-4q-5-1-8-6t-1-10z"/><path fill="#47345f" d="m144 420 1 3 4-1v20l-5-2v-2h-2z"/><path fill="#a12a3c" d="m153 447 4 1 2 9v6l3 1v2h-7l-4-2v-10z"/><path fill="#48302a" d="M255 62h5q-4 3-10 3l-16 5-7 3-9 4-3-3q19-10 40-12"/><path fill="#a42b3e" d="M312 505h3l3 1v6q-3 3-8 3h-5v-9z"/><path fill="#271711" d="M256 375h29q-3 5-6 5c-21 1-21 1-30-1l-2-2h12z"/><path fill="#8d2f47" d="m197 424 2 3-8 10-2 3-6 2h-2v2l-3-1-2-6v-3l-1-3 2 1 1-6 4 9v3l1 2q9-6 14-16"/><path fill="#10080f" d="M163 447q5 7 3 13v13l7-1-1 3h-9l-1-10v-14z"/><path fill="#41261d" d="m239 315 2 1 4 1 2 1q19 5 36-2l4-1q-6 8-17 8-16 3-29-4l-2-2z"/><path fill="#392722" d="m160 138 3 1-1 2-1 3-1 3q-3 7-2 16l4 6 2 2 1 2-3 1-3-3-1-2q-6-7-4-15 1-9 6-16"/><path fill="#8c2c3f" d="M158 509h6l1 5 5 1v8l-13-5z"/><path fill="#712b44" d="m379 429 5 1q5 7 6 15l-7-2-1 3q-3-7-4-16z"/><path fill="#332117" d="M365 236h1l1 5 2-3 2 4-1 3h2q5 6 3 11-1 8-6 12h-2q0-4 3-7t2-8q0-3-4-5l-3-1z"/><path fill="#7b2e46" d="M319 505h15v7h-15z"/><path fill="#281a16" d="M179 102h2l-4 11-1 3-1 2h2q-1 6-6 10l-7 8-1 2h-2q2-5 5-9 5-6 7-14z"/><path fill="#302f32" d="M207 96v2l-7 4q-10 6-18 15l-5 3v-2h-2l1-3h2l3-3c6-7 17-16 26-16"/><path fill="#4c1c32" d="m226 441 22 21h-4q-12-5-18-18z"/><path fill="#efeeec" d="m300 207 1 11q-7 1-14-2 2-5 6-8t7-1"/><path fill="#802740" d="m141 437 3 1v9h2l1 17h-4v-15l-4 3z"/><path fill="#d6976c" d="M321 197c8 3 8 3 9 6h-2v3l-7-3q-7-4-16-4h-2l-1-2c5-3 14-2 19 0"/><path fill="#a32a3c" d="M328 521h7v14l-7 1z"/><path fill="#231911" d="m193 329 8 9 2 2 1 2-2 4v-2h-2v39h-1l-1-36h-1v-4l-5-10z"/><path fill="#37373d" d="M309 107c7 1 9 3 14 8l16 15-2 2-2-2-26-21z"/><path fill="#3e211d" d="m308 286 6 3v11q-3-4-3-10l-15 9-1-3 3-2 1-3h-26v-1h26l2-1h5z"/><path fill="#5d334b" d="M374 494h1l1 10v2l1 15-4 1-1-4-1-2v-14h3z"/><path fill="#aa2a3d" d="M229 502v5h-19v-5l8-1h2z"/><path fill="#403359" d="M226 474h2q7 10 8 21h-4l-4-10h-2z"/><path fill="#65524d" d="m293 297 3 1-1 2h-2v2h-2l-2 1h-3l-2 1-1 3q-4 4-7 3v-2l-2 1h-20v-1h9l2-1h5l5-1-4-1 4-1 4-1 3-1 9-4z"/><path fill="#de8c2e" d="M342 335h1v8l1 3 1 8-1 6-1 3v2l2 1 2 4 5 7 3 5 2 2-2 2-2-2-2-4-2-3-7-8-1-3z"/><path fill="#dc7a61" d="M270 311h9q-2 4-7 5h-11l-6-2v-2z"/><path fill="#c07b56" d="m170 247 1 8v2l1 12-5-1 2-1-2-3q-3-6-2-13 2-5 5-4"/><path fill="#d29462" d="M365 247q6 1 8 5 0 7-5 13h-2z"/><path fill="#0d0907" d="M167 189h1v11l1 3 1 14-1-1-11-4v-1h7v-2l-1-13h3z"/><path fill="#783359" d="M199 515h5l1 11-1 2v6l-5-1z"/><path fill="#8d2a3f" d="m383 443 13 4v4h2l4 13-5-2-3-10h-2l-1-2q0-3-4-4l-3-1-1 3z"/><path fill="#382b28" d="M287 112q15 2 26 11h-2l-1 2-3-1-22-9z"/><path fill="#572e4f" d="M241 508v8l-3 1h-4l-3-1v-8z"/><path fill="#371a10" d="M379 162h1l1 24v3l-1 18h-1q-3-22 0-45"/><path fill="#592d4b" d="M325 487q3 6 2 11v7h-9v-5l1 4h2v-2l-1-7v-5l2 1 1 5 2-5z"/><path fill="#ba9144" d="m292 513 3 2c0 6 0 6-2 10h-5q-2-4-2-9 2-4 6-3"/><path fill="#1d0f1a" d="m251 466 9 6 3 2 6 6-7-2 1 3q-6-1-10-7l-1-5z"/><path fill="#e7e4e1" d="m224 208 10 6-1 4-4 2h-3l-5 1 1-2z"/><path fill="#472c47" d="m291 500 6 1c-1 7-1 7-3 9l-7 1-3 7v4h-1q-2-5 1-11l2-4 2-2z"/><path fill="#e8e5e3" d="m204 208 2 12c-6 0-7 0-12-3q0-3 3-5l1-2 2-1z"/><path fill="#6a2d4f" d="m358 402 1 2 4 5q3 5 2 10l-6 1-1 3h2v2l3-1q3 4 2 9v3l-2-1-1-7-3 1q-2-5-2-10l4-2v-4l-1-2-2-4z"/><path fill="#f1b891" d="m249 209 1 3h2v21l-4 1-1-5v-3l1-6 1-6v-5"/><path fill="#50304c" d="m407 487 4 2 1 6 1 3v2l3 1c-5 3-5 3-8 3v-3l-2-5v-6z"/><path fill="#5d2c48" d="M163 477h3l2 9v5l1 3v7h11v1h-9l-8-2v-5h2v-6l-1-4z"/><path fill="#663754" d="M318 512h9v9l-8 1-1-3z"/><path fill="#2d1613" d="M342 387q7 12 4 26l-2 6h-2l-3 5q-2-4 1-10l1-2 1-5 2 2-1-8z"/><path fill="#d69474" d="M275 279q7 0 13 2l3 1 4 1 6 2h3l2 1-1 2q-16-1-31-7z"/><path fill="#4f2d20" d="M309 193h3q10 1 17 7l-1 2-2-1q-12-7-26-4-6 2-11 6 7-11 20-10"/><path fill="#7e304b" d="m178 453 2 1 1 7-3-1v-3 2q-4 5-9 6h-2v-5l4-4 3-2z"/><path fill="#483052" d="M362 501h5v5l-27-1v-3h22z"/><path fill="#241522" d="m183 465 3 1-6 4 2 2q-9 6-20 4v-6h1v5h4l3-1h2l1-2-7 1v-7h1v6l7-3 3-1z"/><path fill="#2d0e16" d="m380 440 3 3v2l5 14v6q-7-7-9-18h2z"/><path fill="#2c292e" d="M263 110v1l-14 1 8 1v1l-7 1-3 1c-9 1-9 1-12-1l-6 1c8-8 24-6 34-6"/><path fill="#752c48" d="M237 495q3 3 3 8v5h-9v8h-1l-1-8 1-1-1-7 9 1z"/><path fill="#992136" d="M141 449h2v15l-7 1q0-9 5-16"/><path fill="#3e2818" d="M395 227q3 2 3 6 0 15-4 29l-3-3 1-6q3-13 3-26"/><path fill="#733658" d="m349 389 5 1q4 6 2 14l-5-4h-3z"/><path fill="#100e0e" d="M186 149h2l-3 6-1 7-1 3v3l-3 1-1-5h-1q-1-6 3-11l3-1z"/><path fill="#80293f" d="m239 494 6 2 1 11-7-1-1-8v-3z"/><path fill="#433665" d="M405 470h22l1 3-11 1h-4l-3 1h-7l-1-4z"/><path fill="#d98938" d="m177 356 2 1-1 2-13 27-1 2-2 5-3 6-4 1 1-1 8-16 2-4 1-3 8-16 1-2z"/><path fill="#0a0603" d="M340 340h1v24l-2 8h-1v-15l1-16z"/><path fill="#55213a" d="m278 489 7 4 2 1 1 4-4 6-2-5h-2z"/><path fill="#4d3528" d="M170 220h1v12q1 7-2 13l-4-9q-1-7-6-11v-2q6 3 8 7l2 5z"/><path fill="#4b4071" d="m341 432 2 1 2 7 1 2 3 16h-4l-2-9v-3l-3-13z"/><path fill="#7c4061" d="m179 375 4 1 4 13 4 13 1 6 2-1 1-3 4-1q-1 5-6 6l-1 3-11-34-2-1z"/><path fill="#38363b" d="M231 87v2l-3 1-15 5q-5 3-10 2c3-5 12-7 17-9 7-2 7-2 11-1"/><path fill="#2d121c" d="M161 420h1l2 12v6l1 3v8h-2l-1 14h-1l-1-22h1z"/><path fill="#7f4352" d="M289 529h4v10h5v2h-8l-2-1-12-1 1-2 12 1z"/><path fill="#782b3a" d="M297 523h1v16h-5v-10h-6v-1h3l6-3z"/><path fill="#3d2d4d" d="m394 477 1 3 3 1q3 8 2 15l-5 1v-2h-2v-2h3v-2l-1-3-1-3z"/><path fill="#5e2d4a" d="m380 428 6 1v2h3l1 5h2l3 11q-6-2-6-4l-1-2-1-3-1-2c-2-5-2-5-6-8"/><path fill="#4a2d1e" d="M390 219v2l-2 1 2 3q3 11-1 21h-1v-15l-1-3q0-2-3-5l-2-1z"/><path fill="#852a3e" d="M130 493h16v5h-18z"/><path fill="#872c43" d="m334 459-1 6-4 1-3 1h-2l-1-3q0-3 2-5z"/><path fill="#8c6751" d="m246 321 3 1q16 1 31-1v2q-8 3-18 2h-2l-14-2z"/><path fill="#c08d69" d="M312 270q7 4 11 11l1 7h-2l-1 4v-2l-3-8-5-3 2-4-1-1z"/><path fill="#7d283d" d="M248 516h6l-2 2v5l-1 2v13h-3z"/><path fill="#503d69" d="M199 502h4v2l1 2v2l1 2 3 1v2q-4 3-9 2z"/><path fill="#712e47" d="M207 494h1l1 21-5 1 1-3h3v-2l-4-1-1-9h4z"/><path fill="#3f2e54" d="M145 471h3l1 8v2l1 13-3-1-1-7v-2l-1-3v-10"/><path fill="#523462" d="M365 415q4 5 4 12l-9-2v-2h-2l1-4h6z"/><path fill="#523358" d="M166 400h2v2c2 13 2 13 6 25h-4q-5-13-4-27"/><path fill="#5a406c" d="M368 507h3l1 11 4 1h-3v4l-5 1z"/><path fill="#3f2c28" d="M328 80q12 3 19 13l2 2h-2l-1 2-2-3q-6-6-13-9z"/><path fill="#593148" d="M343 419h1l1 2 2 10 1 4 5 21h-2l-2-9h-2v-2l-1-3v-3l-2-4-1-8v-8"/><path fill="#362014" d="M343 370q4 1 5 4l2 2 1 3 2 2 3 5-1 2-3-3q-2-4-6-7l-3-4-1 12h-1v-14h2z"/><path fill="#46291b" d="M244 197q5 4 4 7v11q1 9-2 16h-1v-17z"/><path fill="#110e0f" d="m276 110 2 2h-4l-3 1-4 1h-11l-3-1h-7c7-5 21-4 30-3"/><path fill="#862332" d="M158 442h2l1 8v3l1 2v9l-4-1-1-9v-8z"/><path fill="#652f4d" d="M145 421h5v27l-6-1v-7l4 1 1-19-4 1z"/><path fill="#764b31" d="M212 196h2q11-1 18 6v2l-2-1q-13-6-29-4 4-4 11-3"/><path fill="#4d2741" d="M155 418h2l2 9v2l1 13h-2q-4-12-3-24"/><path fill="#5e4432" d="m291 222 7 2 10 2h7v3q-13 1-24-5z"/><path fill="#5e3354" d="M148 505h7l1 5v3h-7l-1-5z"/><path fill="#3a2e54" d="M149 466h2l2 10v3l1 15h-3z"/><path fill="#21150f" d="m359 253 3 2-2 20h-4z"/><path fill="#643d2a" d="m167 245 4 1v12h-1v-11q-3 2-4 6-1 7 3 12v2l-5-3q-2-7-1-14z"/><path fill="#632c49" d="m247 507 9 1h3v1h-6v7h-6l-1-8z"/><path fill="#d2845b" d="M271 255q-3 6-10 6h-8l1-4h4l3-1z"/><path fill="#f3f1ef" d="M321 208c7 4 7 4 8 7l-6 3h-5z"/><path fill="#a26648" d="M217 198c8 1 8 1 12 4l1 5-7-3-10-2h-6v-1h10z"/><path fill="#4a395c" d="M367 514h1v5l-28-1v-2l27 1z"/><path fill="#2c1d10" d="m361 284 3 6 9 2v1h-8l-4-1v3l-2 8h-1l1-16h2z"/><path fill="#17100e" d="M347 156h2v6h3v16h-3l-1-11-1-2v-9"/><path fill="#6d283e" d="m317 493 1 11-1-4-11 1 1-4h5v-2z"/><path fill="#572338" d="M304 490h2l-3 17h-1v-7l-5 1z"/><path fill="#3d2415" d="M392 258h1l-4 21h-3l-1-4 1-2 1-3 1-2 1-3z"/><path fill="#3f2f53" d="m425 464 3 7h-16q2-4 6-5h7z"/><path fill="#0f0c1c" d="m386 464 4 1 2 6 1 3 1 7h-2q-4-4-5-9v-3z"/><path fill="#c4892c" d="M436 443q11 1 21 4l3 1q6 2 11 7l-14-5h-2l-19-6z"/><path fill="#d99462" d="M209 198h8v3l-6 1h-3l-6-1q-4 0-8 3l3-5z"/><path fill="#180f0f" d="M289 510h6l-1 3-7-1v8l2 5 3 2c-6-1-6-1-8-3v-7q0-6 5-7"/><path fill="#9b2639" d="M155 499h7q3 3 2 7h-7q-2-2-2-5z"/><path fill="#57304e" d="m234 487 4 6v8l-9-1v-5h7z"/><path fill="#efaf82" d="M253 240h2l1 3-5 6-4-1c1-8 1-8 6-8"/><path fill="#973a46" d="M230 517h1v20h4v-11h1v12h4v2h-9l-1-7v-16"/><path fill="#4f2d4c" d="m198 506 1 4-29-2v-1z"/><path fill="#913548" d="M146 447h2l1 19h-13l4-2h7v-3z"/><path fill="#45325a" d="M170 399h1l5 27h-2z"/><path fill="#352928" d="m296 202 2 1-1 2h4l-1 2h-2l-7 4h-2l-2 4h-2l4-8 2-1z"/><path fill="#522c4b" d="M151 466q4 4 3 9v2l1 23h-3v-6h2v-2l-1-10-1-3v-3l-1-3z"/><path fill="#952d43" d="m357 425 1 6-7 2v-2l-4-1c5-5 5-5 10-5"/><path fill="#d3b6a2" d="M175 207h1l1 10v3l-1 1v10l-1 24h-1z"/><path fill="#232128" d="m338 130 9 6 2 2 5 7-2 2-1-2-12-11z"/><path fill="#4a324a" d="M275 534h1v5l20 1-4 2h-17z"/><path fill="#302b3f" d="m310 476 2 2-1 1q-10 9-16 21h-3q2-6 7-11z"/><path fill="#3f3765" d="m208 420 4 2v3l-2-1v2h-2v2l-5 2-1-4 3-3 2-2z"/><path fill="#422919" d="m159 281 6 7 6 2h3l2 3q-6 2-11-1c-6-5-6-5-7-9z"/><path fill="#2f1915" d="M238 255q6-1 11 3l3 2 5 5q-6 0-11-5l-8-2z"/><path fill="#623e64" d="M184 444v4l1 3 1 6-4 2-2-14z"/><path fill="#1e140f" d="m246 323 6 1h2l9 1h2l5 1v1l-10 1h-8q-4 0-6-3z"/><path fill="#902e44" d="M395 510v3l-15 7-2-2v-3h2q8-1 15-5"/><path fill="#241811" d="M207 180h15v2h-9l-2 1-14 1 3-1v-2z"/><path fill="#2f2f36" d="m186 107 4 2-8 7-5 4v-2h-2l1-3h2l4-4 2-2z"/><path fill="#9a2a3c" d="M327 505h7v7h-7z"/><path fill="#171316" d="m130 472 4 1-2 12-1-2-4 4z"/><path fill="#483317" d="M412 439c17-1 17-1 24 4l-9-1v2l-9-1-1 2v-3l5-1-10-1z"/><path fill="#44294c" d="m405 439 2 2 6 4 3 4h-2l-1-2-5-1h-5v-3l-2-1h3z"/><path fill="#4f3728" d="M209 179h7v1l-16 1v2l-5 3-3 2-2 1q0-4 3-6 7-5 16-4"/><path fill="#161419" d="M363 170h5q3 7 2 14h-2l-2-6-1-5h-2z"/><path fill="#b44337" d="M299 516h1l1 25h-3v-19z"/><path fill="#452818" d="M164 206h1v5l-6 3q-6 3-8 9l-1-6 7-7h7z"/><path fill="#27262d" d="M324 119q7 0 10 6l3 2 2 2-2 3-13-12z"/><path fill="#792742" d="M302 500v12h-1v-5l-7 3q0-3 2-5l1-2v-2z"/><path fill="#80283c" d="m151 447 1 17-3-1-1-9v-6z"/><path fill="#110b09" d="M145 405h7l-3 5q-3 4-4 10h-1v-9z"/><path fill="#080706" d="M198 340h1v37h-1v-20l-1-3v-3l-3-2 3-2z"/><path fill="#512645" d="m197 351-1 4-5 2h-2l-2 1-1-4q5-4 11-3"/><path fill="#321e18" d="m260 62-10 4h-3l-8 1v-2q10-4 21-3"/><path fill="#4e375b" d="m320 490 2 1 1 5 2-1 1 7h-3v2h-2l-1-9v-5"/><path fill="#5e2e4f" d="m170 395 5 12v2q3 7 2 16h-1z"/><path fill="#d59b6f" d="M365 251h1v7l1 3 1 9h-3v7h-1v-12z"/><path fill="#acafb2" d="m165 176 4 1-3 18h-1z"/><path fill="#3a2a1b" d="m108 417-8 4h-3l-2 1-1-1-4-1 6-2 3-1z"/><path fill="#522f21" d="M232 243h2l-1 2-1 10 5 7-6-3q-4-5-2-11z"/><path fill="#6b3c29" d="m284 242 6 4v10l-5 5h-2v-2l2-2q4-3 3-8z"/><path fill="#2f1711" d="M357 106q7 6 9 14v2h-2v-2l-3-1q-4-6-4-13"/><path fill="#b48666" d="m237 283-4 2h-2l-5 1v2l2 1-3 1h-6v-2l8-4q5-2 10-1"/><path fill="#d08d5e" d="m212 189 8 1-1 5h-8v-2h2z"/><path fill="#0e0709" d="M275 527h1l-1 15h-3c-1-11-1-11 3-15"/><path fill="#3b2c4e" d="M144 420h1v20l-1-2h-2z"/><path fill="#845775" d="m168 393 2 1-6 12h-2l1-7 1-5 4 1z"/><path fill="#40291e" d="m308 286 6 3v11q-3-4-3-10l-3 1h-8v-1l3-1 4-1z"/><path fill="#6a462f" d="M209 274h2l-4 7-1 10v6h-1v-6h-2q0-10 6-17"/><path fill="#dea475" d="M205 201v2l-4 2-2 1-5 2 1-5q5-4 10-2"/><path fill="#c38059" d="m304 197-1 1 11 1v1l-19 1 3-4z"/><path fill="#0d0909" d="m238 115 1 2-3 1 3 2-13-1q5-6 12-4"/><path fill="#782836" d="M304 506h1v9l2 1-2 1-1 24h-1v-25z"/><path fill="#5a2a4e" d="m205 413 5 7-8 5-2 3v-6l2-1q2 0 3-5z"/><path fill="#844b3c" d="m284 306-8 4v-2l-2 1h-20v-1h4l22-3z"/><path fill="#906444" d="M228 223h2l-3 4q-8 4-17 3v-1l4-1 4-1 3-1z"/><path fill="#ac6e4f" d="m294 199 6 2-2 1-6 4-2 2-2 1v-7l2-1z"/><path fill="#4a2b22" d="M379 162h1l1 19h-1l-1 9h-1z"/><path fill="#593757" d="m235 507 1 4h4v2h-3v3h-2v-3h-4v-5z"/><path fill="#4e2232" d="M251 466q5 2 8 6l2 1 2 2v1h-5l-4-4-2-2z"/><path fill="#251219" d="m343 462-9 4v2l-5 3-2-1 1-2-2-2 7-3h2c6-2 6-2 8-1"/><path fill="#453768" d="M185 457h3l1 6-2 2h-4v-6z"/><path fill="#0c0807" d="M411 440h11l1 2h-3l-4 3-1 2-4-3z"/><path fill="#827c7d" d="m140 408-6 9-2-1 1-6-4 1 3-3z"/><path fill="#4e303e" d="m200 468 2 6 3 10v6-3h-2q-3-9-3-19"/><path fill="#552f53" d="m344 454 1 4 3 1-5 2v-6l-2 1-10-1 1-2q6-2 12 1"/><path fill="#973048" d="m201 441 1 2-12 12h-2l7-9 3-2 2-2z"/><path fill="#edb489" d="m201 347 3 2 1 6v6h-4z"/><path fill="#c07557" d="m241 285-2 1h-2l-3 1-3 3q-4 2-8 1h-5l-1 2-1-3 7-1h4l1-2 4-2 3-1z"/><path fill="#613a28" d="M156 226h2l-1 17h-2v-9z"/><path fill="#da9262" d="m313 196 4 3-9 1-3-1h-2l-1-2q5-2 11-1"/><path fill="#7b5039" d="M328 199v3l-2-1q-9-5-20-5v-1q12-2 22 4"/><path fill="#d7926a" d="m198 153 2 1-6 6-2 2-4 4h-2l-1 5h-2l2-7 4-2 5-5 2-2z"/><path fill="#0f0907" d="m246 373 10 2 3 1 1 2q-7 1-15-2z"/><path fill="#3a3135" d="m229 117-1 1 3 2-16 3q3-4 8-5l2-1z"/><path fill="#79355a" d="M289 529h4v9h-4z"/><path fill="#291d13" d="m427 442 17 3v1h-9l-8-2z"/><path fill="#4b3157" d="m393 441 10 2v3h-8z"/><path fill="#341d18" d="m218 291 10 1v4l2 1-5-1h-3z"/><path fill="#110a06" d="M150 220h1l-1 17-2 1v-11q0-3 2-7"/><path fill="#b17651" d="m220 190 6 1v2l-4 1 1 2h-16v-1h12z"/><path fill="#291c1a" d="M362 120h2v2l3 1q3 4 3 9l-1 3-5-9-1-3z"/><path fill="#852b3e" d="M165 515h5v8l-5-2z"/><path fill="#592d47" d="M164 506h4v9l-4-1z"/><path fill="#9f2738" d="M240 501h6v6h-5l-1-4z"/><path fill="#6e3253" d="m181 442 4 1 3 14h-2q-2-4-2-9v-4l-7 1 4-1z"/><path fill="#6c3351" d="M387 431h2l1 5h2l3 11q-3 0-4-4l-2-3-1-3z"/><path fill="#892945" d="m347 399 5 1 1 5h-6l-1 3z"/><path fill="#502d22" d="m284 315 3 1q-6 6-14 6l-3-2 3-1 3-1 4-1z"/><path fill="#5b3d38" d="M220 291h9l12 1v1h-6l-3 1h-3l-1 2v-4h-8z"/><path fill="#edc8aa" d="m287 216 14 2 1-2 1 4q-8 2-16-3z"/><path fill="#110e0d" d="M172 172h1q0 9-3 16l-2-1q-1-8 4-15"/><path fill="#663241" d="M200 463h2l2 11 4-1v2h-5l-1 3z"/><path fill="#612c47" d="M165 450h8l-2 2q-5 6-4 14h-1z"/><path fill="#1e0a11" d="M384 453q6 5 5 12-4-1-5-4z"/><path fill="#211913" d="m96 421-8 4-2 1-7 1c4-4 12-9 17-6"/><path fill="#92334b" d="M156 414q1 3-2 5l-2 2-2 2v-2h-5l1-5 2 3z"/><path fill="#371b24" d="m154 401 4 2v23h-1v-22l-4 2z"/><path fill="#492f15" d="m153 403-1 4v-2h-3l-4 1h-4l-7-1q9-2 19-2"/><path fill="#66375c" d="M185 355h2v2l-2 11v2l-2 1v-10h-2z"/><path fill="#eaba9b" d="M151 225h1l1 12h1l-1 10q-2-3-2-7v-15"/><path fill="#9b6248" d="M155 222h5v2l4 6-1 2-5-2-1-6h-2z"/><path fill="#c1bed4" d="m348 101 2 3 2 3q3 6 2 13-5-9-6-19"/><path fill="#1b1122" d="m301 489 2 3-3 5-1 2-2 2h-2q1-7 6-12"/><path fill="#36283e" d="m200 463 1 13-2 1-1-7v-5l-4 1q2-4 6-3"/><path fill="#3f2b54" d="m365 415 4 8h-7l1-4h2z"/><path fill="#762f45" d="m367 411 8 5v3l-5-1q-4-4-3-7"/><path fill="#1e1611" d="M141 406q-7 4-15 4 3-4 8-4l2-1z"/><path fill="#72432c" d="M312 270q7 4 11 11v5l-4-6-5-6-2-2z"/><path fill="#e4bea0" d="m193 216 3 2 9 1 1-2 4 5q-8 1-17-4z"/><path fill="#3e3631" d="m332 210 2 4q-6 1-10-5 4-2 8 1"/><path fill="#2d2728" d="m203 130 2 1-1 4-10 4 2-3h2v-2z"/><path fill="#332522" d="m304 118 9 5h-2l-1 2-9-4z"/><path fill="#37111c" d="m302 507 2 4v8l-1 2v7h-1l-1-8v-2z"/><path fill="#523151" d="M323 512h4v9h-3z"/><path fill="#66334e" d="m408 498 8 3c-5 3-5 3-8 3z"/><path fill="#7c273f" d="m161 495 3 1-2 4-6-1v-4z"/><path fill="#7a2941" d="m164 439 3 9 9-1v2q-5 3-10 2z"/><path fill="#5d2643" d="m358 402 1 2 6 9-2 4h-2l-1-6-2-4z"/><path fill="#edb992" d="m186 287 3 3 1 13h-2l-2-9v-7"/><path fill="#c27451" d="M231 254h13v1l-6 1-1 3-4-1z"/><path fill="#cf8960" d="M382 231h3q4 7 4 16h-2l-1-11h-2l-3-4z"/><path fill="#462516" d="M380 207c7-1 7-1 10 1l3 5-3 1-1-1q-2-2-5-2z"/><path fill="#443128" d="m157 163 8 10-3 1-5-5-1-4z"/><path fill="#3c2c29" d="M241 67q-7 4-14 4 6-6 14-4"/><path fill="#7b2a41" d="M327 500h6v5h-6z"/><path fill="#080713" d="M187 360h1l1 14-3-4v-7z"/><path fill="#191719" d="m355 166 13 3 1-2v5l-1-2h-5l-1 2-3-2-2-2-2-1z"/><path fill="#4b494c" d="m214 91 1 3q-5 3-12 3 1-3 5-4l2-1z"/><path fill="#553049" d="M204 508h5v7l-5 1 1-3h3v-2l-4-1z"/><path fill="#593556" d="m400 496-1 7-4-1v-5z"/><path fill="#6b2534" d="M158 442h2l1 8v13h-1l-1-17h-2z"/><path fill="#22110c" d="m285 180 2 1-4 6 7 1v1h-8l-1-4v-3z"/><path fill="#8b8a9e" d="m347 98 9 10-1 2q-5-3-8-10z"/><path fill="#7a2e42" d="M375 504h1v10l-4-1v-6h3z"/><path fill="#0f090b" d="M342 418h1v7l-5 4q-1-6 4-11"/><path fill="#361a26" d="M342 387q4 6 4 13l-1 3q-3-4-3-9v-7"/><path fill="#402f1f" d="M129 410q-4 3-8 3l-2-1-4-1 5-2 2-1q4 0 7 2"/><path fill="#2d1b11" d="M162 391h2l-1 9h-3l-4 1 1-2 1-2 2-2z"/><path fill="#915c44" d="M251 260h14l-2 3h-7q-2 1-5-3"/><path fill="#402215" d="M163 252h1l1 2 4 13q-3 0-5-4z"/><path fill="#2d1611" d="M276 255h3l1 3-11 1q2-4 7-4"/><path fill="#c38f68" d="M372 227h2q-1 6-6 11 0-5 2-9z"/><path fill="#3c2919" d="m295 511 3 3-2 6h-1l-2-6-6 1v-3h3z"/><path fill="#4d2a49" d="M275 506h1v5l-15-1v-1h12z"/><path fill="#6a3864" d="M368 507h3l1 9-4-1z"/><path fill="#7d293f" d="m163 500 6 2v4h-5z"/><path fill="#912c43" d="M403 502h5v2l2 1-7 3z"/><path fill="#553349" d="M206 490h1v11h-4v-5h3z"/><path fill="#0f090d" d="m343 461 2 1q-2 4-7 5h-2l-2 1v-3l4-2 3-1z"/><path fill="#271d26" d="m224 432 3 3-1 4v3h-5l1-2h2v-2h-2z"/><path fill="#c2c0c1" d="M241 293v1l-8 1 1 4-4-2-1-3z"/><path fill="#26180e" d="m155 272 4 4v7q-5-4-4-11"/><path fill="#231917" d="m311 123 8 3-1 3-7-3z"/><path fill="#ad2a3c" d="M158 515h6v5l-6-2z"/><path fill="#6a3663" d="M199 502h4l1 6h-5z"/><path fill="#473461" d="M291 500h4l-1 5-3 2-1-6z"/><path fill="#622e4b" d="m245 496 5 1 1 4h-6z"/><path fill="#912a43" d="m353 405 1 2h2v13h-1l-1-5-1-3z"/><path fill="#cc8868" d="M296 284c8 1 8 1 10 3h-10z"/><path fill="#2d180c" d="M392 258h1v4l-1 3-2 6q-2-6 2-13"/><path fill="#a76f50" d="M162 251h1l1 6 1 3v6l-4-4z"/><path fill="#e6ad7b" d="m386 217 6 1q3 4 2 8h-2l-2-6z"/><path fill="#a89183" d="M175 207h1c2 14 2 14-1 20h-1z"/><path fill="#875137" d="M300 188v3l-17-1v-1z"/><path fill="#392736" d="M371 472q4 3 3 6v4l-1 3v3h-1z"/><path fill="#1b1818" d="M143 409h1v12l-3-1z"/><path fill="#722434" d="m149 408 2 1-3 7h-2l-1 3q0-7 4-11"/><path fill="#a17250" d="M306 226h9v3h-10z"/><path fill="#ddad8f" d="m152 219 5 5v2l-5 2z"/><path fill="#473b38" d="m230 208 6 5-1 3-8-6z"/><path fill="#a86a4a" d="m201 136 2 1-3 4-2 2-2 2h-2z"/><path fill="#211918" d="M207 127h4q-1 4-5 6l-3-1z"/><path fill="#413231" d="M296 65q5 0 10 2l-1 3-4-1h-2l-2-1z"/><path fill="#b24c41" d="M299 522h1l1 19h-3z"/><path fill="#8b263b" d="M155 499h7v3l-5-1-1 4-1-4z"/><path fill="#682740" d="m141 437 3 1-1 7-3 1z"/><path fill="#4c341e" d="m80 424 2 1v3l-7 2-2-3z"/><path fill="#2a1810" d="M169 376h1l-1 9-2 2v-6z"/><path fill="#9a7661" d="M280 321v2l-8 1h-4q5-4 12-3"/><path fill="#130b07" d="M175 282h1l1 11-8-1v-1l5-1z"/><path fill="#c69873" d="M207 280h5l-6 8v-6z"/><path fill="#9f583d" d="m237 256 1 2h3q3 0 5 2l1 1c-7 0-7 0-10-2z"/><path fill="#d7742e" d="m396 249 1 9v4h-3l1-8z"/><path fill="#ce8964" d="M158 247h1l1 5h2l-1 8-3-8v-5"/><path fill="#892e41" d="M306 501h10l-1 2-5 1h-4z"/><path fill="#523d70" d="M203 496v6h-4v-5z"/><path fill="#3d3028" d="m470 455-1 2-11-2 4-1 2-1z"/><path fill="#28190c" d="m457 451 8 1v3l-8-2z"/><path fill="#3a3252" d="M342 425h2v9l-4-1z"/><path fill="#5a2d56" d="m364 415 1 4-6 1-1 3 2 1h-3v-5l3-1z"/><path fill="#210f07" d="m150 246 2 4v7q-4-4-3-10z"/><path fill="#c18661" d="m313 196 7 1 1 3-1 2-4-1-1-3z"/><path fill="#533525" d="M339 189v3l-9-3v-1q5-2 9 1"/><path fill="#382d26" d="M179 179v7l-1 2v2q-2-3-2-7l1-3z"/><path fill="#1f1618" d="m353 102 4 3v7c-4-7-4-7-4-10"/><path fill="#4c3559" d="M319 513h3v7h-3z"/><path fill="#4b2e4e" d="M153 506h3v7h-3z"/><path fill="#3b3059" d="m278 501 4 1-1 4-5-1z"/><path fill="#441e2e" d="M304 490h2l-1 8-2-3h-3z"/><path fill="#4f202f" d="M390 479q3 4 3 9l-5-4h2z"/><path fill="#231a1d" d="m337 426 5 1-2 6-4-2z"/><path fill="#170d0b" d="M381 417q5 1 7 5l-4 1-3-3z"/><path fill="#311b12" d="m175 363 2 3-2 5h-3z"/><path fill="#1a100d" d="M179 358v6l-1 2h-2l1-7z"/><path fill="#401d38" d="m188 352 2 1v2l6-1q-4 4-9 4l-1-4z"/><path fill="#9c6d56" d="M246 321c9 1 9 1 12 3l-12-1z"/><path fill="#cf8b66" d="m228 288-1 2h-8v-2q5-2 9 0"/><path fill="#c47b52" d="m217 198 9 2-1 2-8-1z"/><path fill="#464448" d="M231 87v2c-7 1-7 1-10-1 6-2 6-2 10-1"/><path fill="#942a40" d="m178 426 4 9-1 3q-4-5-3-12"/><path fill="#5d274c" d="m375 417 4 2v3l-6-1v-2h2z"/><path fill="#965a74" d="M165 398q2 5-1 8h-2v-6z"/><path fill="#db9139" d="m161 389 1 4-4 7-3-1 1-1 1-2 2-2z"/><path fill="#d68730" d="m191 349-2 1-2 1-2 1-5 3 1-4q5-3 10-2"/><path fill="#3a2419" d="m246 323 8 1-2 4-6-3z"/><path fill="#e78c3b" d="m361 292 6 2-2 1-5 5z"/><path fill="#542c22" d="M308 286h2l1 3-4 3-7-1v-1l3-1 4-1z"/><path fill="#3e2d23" d="m223 216-4 5h-8v-1h7v-2z"/><path fill="#f5cfb3" d="M185 169h1l-1 10-3-2 1-6h2z"/><path fill="#2b282e" d="m190 146-1 4h-3l-2 3-2-1c5-6 5-6 8-6"/><path fill="#0c0a0f" d="m141 420 3 1-1 9q-2-5-2-10"/><path fill="#8f8889" d="M135 410h3l-4 7-2-1z"/><path fill="#241610" d="m289 374-2 1 3 2-7 1 1-2-2-2z"/><path fill="#44291f" d="m269 256 2 1v1l2 1-6 3-2-2z"/><path fill="#0d0a08" d="M214 203v1l-9 1v2h-3v-3z"/><path fill="#242226" d="M309 107q4 0 7 3l1 2-7-2z"/><path fill="#613553" d="M251 509h2v7l-1-3-4 1v-3h3z"/><path fill="#863244" d="m338 505 2 1v6l-3-1v-5z"/><path fill="#722744" d="M148 499h3v6h-3z"/><path fill="#0c0913" d="M316 468q-2 6-4 6l-1-3q3-4 5-3"/><path fill="#432c4d" d="m404 467 7 1q-4 4-7 3z"/><path fill="#973649" d="m170 429 2 1-3 3-2 1-4 1q1-3 4-5z"/><path fill="#57436f" d="M169 394h1v8l-2 1v-3l-2-1z"/><path fill="#ebab7b" d="m201 347 3 2v6h-3z"/><path fill="#412710" d="m197 348-9 3-2-1c7-4 7-4 11-2"/><path fill="#c69569" d="M390 220q3 4 2 7l-1 3h-1l-3-9z"/><path fill="#e5cebc" d="m223 216 1 2h5q-3 4-8 3z"/><path fill="#d6d4d2" d="m215 208 5 1-1 3h-4z"/><path fill="#cfcdcb" d="m311 206 4 1v3h-5z"/><path fill="#272528" d="m170 173 1 3-2 3v-2l-4-1v-2z"/><path fill="#1f1615" d="M186 149h2l-1 4-6 2v-2l3-1z"/><path fill="#28262a" d="M196 104c-5 4-5 4-8 4l3-4z"/><path fill="#3a2521" d="M185 97q0 4-4 7l-1-4q2-3 5-3"/><path fill="#1b1a1c" d="M279 91c6 1 6 1 8 3l1 1c-6-1-6-1-8-3z"/><path fill="#4e2f52" d="M149 506h2l1 7h-3z"/><path fill="#522b49" d="M248 508h11v1h-8v2h-3z"/><path fill="#382136" d="M396 488h1v9h-2v-2h-2v-2h3z"/><path fill="#201b20" d="m435 479 3 6-4 3z"/><path fill="#2f1820" d="m263 475 6 4h-6l-3-2z"/><path fill="#171516" d="m133 456 3 2-2 6-2 1z"/><path fill="#0d0a0c" d="m337 430 2 1v5l-3 1v-6z"/><path fill="#17110a" d="M96 421c-5 3-5 3-8 3l-2-1q4-4 10-2"/><path fill="#161122" d="m188 357 3 1-2 8h-1l-1-8z"/><path fill="#3c271b" d="M277 323h3q-1 4-4 5l-2 1z"/><path fill="#a75443" d="m284 306-8 4 1-4z"/><path fill="#26160e" d="m315 302 3 1-1 6h-2z"/><path fill="#80593e" d="m203 286 1 2h2v9h-1v-6h-2z"/><path fill="#d98c55" d="M255 267h7v3h-5z"/><path fill="#70382a" d="m231 255 6 7q-4 0-6-3l-1-2z"/><path fill="#69432e" d="M390 219v2l-4 4-2-2-2-1z"/><path fill="#d7d5d2" d="M294 209q-1 5-7 7 1-9 7-7"/><path fill="#c1875d" d="M330 201v2h-2v3l-5-2q3-4 7-3"/><path fill="#693a26" d="m225 198 7 4v2l-2-1-7-3z"/><path fill="#060508" d="M363 170h5l-1 5-4-2z"/><path fill="#231b18" d="m343 152 4 1 2 3h-2l-1 2z"/><path fill="#1a1514" d="M372 139q3 2 2 5v2l-2 1-1-7z"/><path fill="#2f2d35" d="m324 119 5 1 2 3-3 1z"/><path fill="#35393e" d="M175 115h6l-4 5v-2h-2z"/><path fill="#5a595d" d="m287 93 5 2-1 3-6-2z"/></svg>