<svg xmlns="http://www.w3.org/2000/svg" viewBox="0 0 24 24" height="24" width="24">
  <path fill="#009639" d="M1.82 17.88c.11.19.26.33.45.44l9.13 5.26c.38.23.84.23 1.21 0l9.13-5.26c.38-.21.6-.62.6-1.05V6.74c0-.44-.23-.84-.6-1.05L12.61.42c-.38-.23-.84-.23-1.21 0L2.27 5.68c-.39.21-.61.62-.61 1.05v10.54c0 .21.05.41.16.6Z"/>
  <path fill="#fff" d="M9.08 16.02c0 .65-.52 1.17-1.17 1.17-.65 0-1.17-.52-1.17-1.17V7.97c0-.63.56-1.14 1.33-1.14.55 0 1.21.23 1.6.71l.36.43 4.91 5.86V7.99c0-.65.52-1.17 1.17-1.17.65 0 1.17.52 1.17 1.17v8.05c0 .63-.56 1.14-1.33 1.14-.55 0-1.21-.23-1.6-.71L9.08 10.19v5.83Z"/>
</svg>
